<mxfile host="app.diagrams.net" modified="2023-07-07T15:29:42.866Z" agent="Mozilla/5.0 (Windows NT 10.0; Win64; x64) AppleWebKit/537.36 (KHTML, like Gecko) Chrome/114.0.0.0 Safari/537.36" version="21.6.1" etag="DpPkAWI4_CQAlmU55L0m" type="github">
  <diagram name="Trang-1" id="9uNla8lJPvLJIFsQynGL">
    <mxGraphModel>
      <root>
        <mxCell id="0" />
        <mxCell id="1" parent="0" />
      </root>
    </mxGraphModel>
  </diagram>
</mxfile>
